{
  "asset": {
    "version": "2.0",
    "generator": "THREE.GLTFExporter"
  },
  "scenes": [
    {
      "name": "Scene",
      "nodes": [
        3
      ]
    }
  ],
  "scene": 0,
  "nodes": [
    {
      "matrix": [
        49.4659309387207,
        0,
        0,
        0,
        0,
        32.953285217285156,
        0,
        0,
        0,
        0,
        32.81986618041992,
        0,
        -5.070291042327881,
        0,
        -2.1729817390441895,
        1
      ],
      "name": "FLOOR",
      "extras": {
        "name": "FLOOR"
      },
      "mesh": 0
    },
    {
      "matrix": [
        49.4659309387207,
        0,
        0,
        0,
        0,
        32.953285217285156,
        0,
        0,
        0,
        0,
        32.81986618041992,
        0,
        -5.070291042327881,
        17.123790740966797,
        -2.1729817390441895,
        1
      ],
      "name": "CIEL",
      "extras": {
        "name": "CIEL"
      },
      "mesh": 1
    },
    {
      "matrix": [
        49.4659309387207,
        0,
        0,
        0,
        0,
        32.953285217285156,
        0,
        0,
        0,
        0,
        32.81986618041992,
        0,
        -5.070291042327881,
        -0.5987815856933594,
        -2.1729817390441895,
        1
      ],
      "name": "WALL",
      "extras": {
        "name": "WALL"
      },
      "mesh": 2
    },
    {
      "name": "gallery-full.gltf",
      "children": [
        0,
        1,
        2
      ]
    }
  ],
  "bufferViews": [
    {
      "buffer": 0,
      "byteOffset": 0,
      "byteLength": 564,
      "target": 34962,
      "byteStride": 12
    },
    {
      "buffer": 0,
      "byteOffset": 564,
      "byteLength": 564,
      "target": 34962,
      "byteStride": 12
    },
    {
      "buffer": 0,
      "byteOffset": 1128,
      "byteLength": 376,
      "target": 34962,
      "byteStride": 8
    },
    {
      "buffer": 0,
      "byteOffset": 1504,
      "byteLength": 376,
      "target": 34962,
      "byteStride": 8
    },
    {
      "buffer": 0,
      "byteOffset": 1880,
      "byteLength": 204,
      "target": 34963
    },
    {
      "buffer": 0,
      "byteOffset": 2084,
      "byteLength": 564,
      "target": 34962,
      "byteStride": 12
    },
    {
      "buffer": 0,
      "byteOffset": 2648,
      "byteLength": 564,
      "target": 34962,
      "byteStride": 12
    },
    {
      "buffer": 0,
      "byteOffset": 3212,
      "byteLength": 376,
      "target": 34962,
      "byteStride": 8
    },
    {
      "buffer": 0,
      "byteOffset": 3588,
      "byteLength": 204,
      "target": 34963
    },
    {
      "buffer": 0,
      "byteOffset": 3792,
      "byteLength": 1104,
      "target": 34962,
      "byteStride": 12
    },
    {
      "buffer": 0,
      "byteOffset": 4896,
      "byteLength": 1104,
      "target": 34962,
      "byteStride": 12
    },
    {
      "buffer": 0,
      "byteOffset": 6000,
      "byteLength": 736,
      "target": 34962,
      "byteStride": 8
    },
    {
      "buffer": 0,
      "byteOffset": 6736,
      "byteLength": 276,
      "target": 34963
    }
  ],
  "buffers": [
    {
      "byteLength": 7012,
      "uri": "data:application/octet-stream;base64,"
    }
  ],
  "accessors": [
    {
      "bufferView": 0,
      "componentType": 5126,
      "count": 47,
      "max": [
        1,
        0,
        1
      ],
      "min": [
        -1,
        0,
        -1.051496148109436
      ],
      "type": "VEC3"
    },
    {
      "bufferView": 1,
      "componentType": 5126,
      "count": 47,
      "max": [
        0,
        1,
        0
      ],
      "min": [
        0,
        0.9999999403953552,
        0
      ],
      "type": "VEC3"
    },
    {
      "bufferView": 2,
      "componentType": 5126,
      "count": 47,
      "max": [
        1,
        1
      ],
      "min": [
        0,
        0
      ],
      "type": "VEC2"
    },
    {
      "bufferView": 3,
      "componentType": 5126,
      "count": 47,
      "max": [
        40.91904067993164,
        50.88532638549805
      ],
      "min": [
        -35.90701675415039,
        -27.918855667114258
      ],
      "type": "VEC2"
    },
    {
      "bufferView": 4,
      "componentType": 5123,
      "count": 102,
      "max": [
        46
      ],
      "min": [
        0
      ],
      "type": "SCALAR"
    },
    {
      "bufferView": 5,
      "componentType": 5126,
      "count": 47,
      "max": [
        1,
        0,
        1
      ],
      "min": [
        -1,
        0,
        -1.051496148109436
      ],
      "type": "VEC3"
    },
    {
      "bufferView": 6,
      "componentType": 5126,
      "count": 47,
      "max": [
        0,
        -0.9999999403953552,
        0
      ],
      "min": [
        0,
        -1,
        0
      ],
      "type": "VEC3"
    },
    {
      "bufferView": 7,
      "componentType": 5126,
      "count": 47,
      "max": [
        1,
        1
      ],
      "min": [
        0,
        0
      ],
      "type": "VEC2"
    },
    {
      "bufferView": 8,
      "componentType": 5123,
      "count": 102,
      "max": [
        46
      ],
      "min": [
        0
      ],
      "type": "SCALAR"
    },
    {
      "bufferView": 9,
      "componentType": 5126,
      "count": 92,
      "max": [
        1,
        0.5378089547157288,
        1
      ],
      "min": [
        -1,
        0.018170619383454323,
        -1.051496148109436
      ],
      "type": "VEC3"
    },
    {
      "bufferView": 10,
      "componentType": 5126,
      "count": 92,
      "max": [
        1,
        0,
        1
      ],
      "min": [
        -1,
        0,
        -1
      ],
      "type": "VEC3"
    },
    {
      "bufferView": 11,
      "componentType": 5126,
      "count": 92,
      "max": [
        0.2857142984867096,
        1
      ],
      "min": [
        0,
        0
      ],
      "type": "VEC2"
    },
    {
      "bufferView": 12,
      "componentType": 5123,
      "count": 138,
      "max": [
        91
      ],
      "min": [
        0
      ],
      "type": "SCALAR"
    }
  ],
  "materials": [
    {
      "pbrMetallicRoughness": {
        "metallicFactor": 0,
        "roughnessFactor": 1
      },
      "doubleSided": true,
      "name": "Concrete Pavement"
    },
    {
      "pbrMetallicRoughness": {
        "metallicFactor": 1,
        "roughnessFactor": 1
      }
    }
  ],
  "meshes": [
    {
      "primitives": [
        {
          "mode": 4,
          "attributes": {
            "POSITION": 0,
            "NORMAL": 1,
            "TEXCOORD_0": 2,
            "TEXCOORD_1": 3
          },
          "indices": 4,
          "material": 0
        }
      ]
    },
    {
      "primitives": [
        {
          "mode": 4,
          "attributes": {
            "POSITION": 5,
            "NORMAL": 6,
            "TEXCOORD_0": 7
          },
          "indices": 8,
          "material": 1
        }
      ]
    },
    {
      "primitives": [
        {
          "mode": 4,
          "attributes": {
            "POSITION": 9,
            "NORMAL": 10,
            "TEXCOORD_0": 11
          },
          "indices": 12,
          "material": 1
        }
      ]
    }
  ]
}